<svg width="600" height="253" viewBox="0 0 600 253" fill="none" xmlns="http://www.w3.org/2000/svg">
<g clip-path="url(#clip0_801_26)">
<path d="M173.41 44.32C155.38 44.32 145.96 54.08 141.19 62.43V0L141.13 0.03L141.17 0H0V17.29L54.83 7.54V164.09H76.44V7.54L119.59 15.21V164.09H141.2V92.1C141.2 72.84 149.57 53.6 166.66 53.6C183.75 53.6 186.27 68.31 186.27 80.92V164.08H207.88V75.95C207.88 55.88 191.54 44.31 173.42 44.31L173.41 44.32Z" fill="#471132"/>
<path d="M575.62 134.87C571.54 150.06 563.29 161.11 548.82 161.11C528.93 161.11 517.86 138.6 517.86 106.26C517.86 103.99 517.92 101.77 518.03 99.6H600C597.87 66.68 579.79 44.32 548.83 44.32C515.82 44.32 497.44 69.74 497.44 106.27C497.44 142.8 515.82 168.22 548.83 168.22C574.16 168.22 588.66 156.69 595.44 138.02L575.63 134.89L575.62 134.87ZM548.82 51.41C565.33 51.41 575.16 68.52 578.03 91.5H518.71C521.65 67.28 532.13 51.41 548.82 51.41Z" fill="#471132"/>
<path d="M484.66 70.43C483.73 64.4 480.7 58.58 476.1 54.04C471.61 49.61 463.53 44.32 450.5 44.32C433.05 44.32 422.71 53.58 417.6 63.86C416.09 60.25 413.84 56.9 410.95 54.04C406.47 49.61 398.38 44.32 385.36 44.32C368.65 44.32 358.46 52.81 353.13 62.57V48.44H331.52V93.3C331.32 105.45 326.76 120.22 312.72 139.43V48.44H291.11V120.43C291.11 139.69 282.73 158.93 265.65 158.93C248.57 158.93 246.04 145.35 246.04 131.61V48.44H224.43V132.25C224.43 154.63 240.77 168.21 258.89 168.21C275.77 168.21 285.61 159.64 291.11 151.7V164.61C284.15 171.77 276.08 179.43 266.75 187.64C257.11 196.13 243.51 207.44 243.51 223.25C243.51 246.04 263.08 252.31 276.09 252.31C298.55 252.31 312.71 238.62 312.71 211.29V151.72C321.06 141.12 327.41 130.98 331.52 121.28V164.09H353.13V90.74C353.13 81.92 355.42 72.66 359.26 65.97C362.5 60.33 368.47 53.62 378.59 53.62C385.92 53.62 398.2 57.07 398.2 80.13V164.11H419.81V83.85C419.81 78.05 421.08 72.29 423.77 67.14C423.98 66.74 424.2 66.35 424.41 65.97C427.64 60.33 433.62 53.62 443.73 53.62C451.06 53.62 463.34 57.07 463.34 80.13V164.11H484.95V74.69C484.95 73.27 484.88 71.85 484.67 70.45L484.66 70.43ZM291.09 207.45C291.09 219.56 291.15 245.95 275.79 245.95C268.93 245.95 261.09 241.29 261.09 222.53C261.09 215.75 261.69 203.64 274.73 191.66C280.56 186.31 286.01 181.06 291.1 175.92C291.1 175.92 291.09 203.93 291.09 207.44V207.45Z" fill="#471132"/>
<path d="M376.22 200.55C373.16 200.93 370.12 201.3 367.03 201.69C366.99 201.55 366.92 201.36 366.87 201.17C366.35 199.3 365.58 197.55 364.35 196.02C362.82 194.12 360.8 193.03 358.45 192.56C355.49 191.97 352.54 192.08 349.66 193.01C346.6 194 344.45 196.01 343.22 198.99C342.09 201.73 341.84 204.6 341.93 207.52C342 209.73 342.3 211.9 343.14 213.96C344.62 217.59 347.31 219.78 351.11 220.62C353.56 221.16 356.04 221.21 358.51 220.69C361.82 219.98 364.33 218.12 365.96 215.15C366.56 214.06 367 212.89 367.52 211.74C370.56 212.22 373.69 212.72 376.86 213.22C376.81 213.44 376.76 213.67 376.7 213.89C375.79 217.22 374.36 220.28 372.08 222.91C369.62 225.75 366.54 227.63 362.94 228.68C360.45 229.41 357.9 229.69 355.31 229.71C351.88 229.74 348.5 229.35 345.26 228.18C340.02 226.3 336.29 222.8 334.15 217.64C332.84 214.49 332.3 211.18 332.2 207.79C332.11 204.91 332.28 202.04 332.97 199.23C333.63 196.58 334.62 194.08 336.21 191.84C338.2 189.02 340.8 186.93 343.97 185.57C347.95 183.86 352.13 183.4 356.42 183.58C359.28 183.7 362.08 184.19 364.75 185.26C368.94 186.92 372.06 189.77 374.1 193.79C375.15 195.86 375.78 198.06 376.22 200.33C376.23 200.39 376.22 200.45 376.22 200.54V200.55Z" fill="#471132"/>
<path d="M484.57 213.59H457.88C457.91 213.87 457.94 214.1 457.97 214.32C458.32 216.52 459.11 218.51 460.81 220.03C462 221.1 463.43 221.72 464.98 222.03C467.26 222.49 469.55 222.5 471.83 221.97C474.44 221.36 476.48 219.95 477.86 217.64C477.96 217.47 478.07 217.31 478.17 217.14C478.18 217.12 478.2 217.1 478.19 217.12C480.31 218.49 482.41 219.85 484.58 221.24C484.21 221.77 483.84 222.36 483.41 222.91C481.55 225.34 479.12 227.01 476.26 228.06C473.23 229.18 470.08 229.42 466.89 229.33C464.45 229.26 462.04 228.91 459.72 228.14C454.58 226.42 451.22 222.96 449.77 217.72C448.97 214.84 448.83 211.9 449.11 208.94C449.3 206.9 449.73 204.91 450.53 203.01C452.29 198.83 455.31 195.99 459.58 194.47C462.23 193.52 464.98 193.19 467.78 193.2C470 193.2 472.19 193.44 474.33 194.06C479.99 195.7 483.47 199.37 484.58 205.19C485.06 207.7 485.01 210.24 484.7 212.77C484.67 213.02 484.64 213.26 484.6 213.5C484.6 213.52 484.58 213.55 484.56 213.59H484.57ZM476.17 208.91C476.21 207.54 476.07 206.3 475.67 205.11C474.88 202.74 473.35 201.08 470.95 200.29C468.67 199.54 466.37 199.6 464.08 200.24C462.15 200.78 460.64 201.9 459.56 203.6C458.72 204.92 458.3 206.38 458.03 207.9C457.96 208.27 457.93 208.65 457.86 209.11C463.99 209.04 470.06 208.97 476.16 208.9L476.17 208.91Z" fill="#471132"/>
<path d="M406.64 228.57C406.5 226.34 406.36 224.13 406.23 221.93C406.2 221.91 406.18 221.88 406.15 221.86C406.05 221.97 405.93 222.07 405.86 222.2C405.24 223.4 404.52 224.51 403.57 225.48C401.6 227.5 399.22 228.73 396.44 229.11C393.24 229.55 390.09 229.29 387.13 227.9C384.15 226.5 382.46 224.09 382.05 220.82C381.85 219.26 381.93 217.7 382.4 216.19C383.07 214.04 384.47 212.5 386.41 211.42C388.28 210.38 390.33 209.9 392.43 209.64C395.8 209.21 399.18 209.35 402.56 209.61C403.71 209.7 404.87 209.81 406.03 209.91C406.03 209.91 406.07 209.89 406.07 209.87C406.16 208.1 406.29 206.34 405.82 204.6C405.29 202.63 404.09 201.27 402.12 200.68C400.27 200.13 398.39 200.1 396.55 200.71C394.41 201.41 393.21 203.01 392.6 205.1C392.49 205.48 392.4 205.88 392.32 206.19C389.38 205.71 386.45 205.22 383.48 204.73C383.5 204.63 383.52 204.45 383.56 204.28C384.17 201.75 385.27 199.49 387.1 197.61C388.77 195.89 390.8 194.74 393.09 194.11C397.47 192.89 401.88 192.88 406.26 194.11C408.72 194.81 410.87 196.07 412.54 198.06C414.06 199.88 414.91 202 415.24 204.32C415.4 205.49 415.46 206.68 415.48 207.86C415.53 212 415.5 216.14 415.59 220.27C415.65 222.96 415.87 225.65 416.02 228.33C416.02 228.41 416.02 228.49 416.02 228.59H406.67L406.64 228.57ZM406.07 213.72C406 213.71 405.95 213.69 405.9 213.69C403.95 213.58 402.01 213.43 400.06 213.37C398.45 213.32 396.84 213.3 395.24 213.61C393.97 213.85 392.76 214.26 391.83 215.2C389.69 217.36 390.56 221.15 393.43 222.19C395.5 222.94 397.63 222.93 399.78 222.54C401.1 222.3 402.3 221.79 403.31 220.91C405.49 219.01 406.04 216.47 406.06 213.72H406.07Z" fill="#471132"/>
<path d="M446.48 193.68C445.92 196.96 445.36 200.2 444.8 203.46C443.41 202.89 441.97 202.72 440.51 202.66C438.05 202.56 436.12 203.57 434.63 205.46C433.34 207.1 432.63 209.02 432.52 211.07C432.36 214.15 432.36 217.23 432.34 220.31C432.33 222.91 432.39 225.51 432.42 228.11C432.42 228.25 432.42 228.39 432.42 228.51H422.87C423.25 217.04 423.37 205.54 422.92 194H431.5V205.5C431.86 205.65 431.98 205.52 432.04 205.21C432.47 203.12 433 201.06 433.9 199.11C434.76 197.25 435.87 195.59 437.64 194.47C438.6 193.86 439.65 193.49 440.77 193.33C442.69 193.06 444.58 193.18 446.5 193.67L446.48 193.68Z" fill="#471132"/>
</g>
<defs>
<clipPath id="clip0_801_26">
<rect width="600" height="252.31" fill="white"/>
</clipPath>
</defs>
</svg>
